<svg width="22" height="20" viewBox="0 0 22 20" fill="none" xmlns="http://www.w3.org/2000/svg">
<path d="M21.6484 9.14531L13.7034 1.20016C13.4766 0.973364 13.1743 0.848877 12.852 0.848877C12.5293 0.848877 12.2273 0.973543 12.0005 1.20016L11.2791 1.92168C11.0525 2.14812 10.9277 2.45057 10.9277 2.77306C10.9277 3.09536 11.0525 3.40801 11.2791 3.63445L15.9141 8.27963H1.18853C0.524597 8.27963 0 8.7994 0 9.46351V10.4835C0 11.1477 0.524597 11.7198 1.18853 11.7198H15.9667L11.2793 16.3909C11.0527 16.6177 10.9278 16.912 10.9278 17.2345C10.9278 17.5566 11.0527 17.8551 11.2793 18.0817L12.0006 18.8009C12.2274 19.0277 12.5295 19.1513 12.8522 19.1513C13.1745 19.1513 13.4768 19.0261 13.7036 18.7993L21.6485 10.8543C21.8759 10.6268 22.0009 10.3231 22 10.0003C22.0007 9.67635 21.8759 9.37247 21.6484 9.14531Z" fill="white"/>
</svg>
